REM DIRINDEX 1\2,1\3,1\4,1\5
REM DIRNAME folder01,folder02,folder03,folder04,folder05
TITLE ""
FILE "1800_092.mp3" MP3
  TRACK 01 AUDIO
    TITLE "2:cjc044_2485"
    INDEX 01 00:00:00
  TRACK 02 AUDIO
    TITLE "0:"
    INDEX 01 00:01:17
  TRACK 03 AUDIO
    TITLE "3:cjc044_2486"
    INDEX 01 00:02:00
  TRACK 04 AUDIO
    TITLE "0:"
    INDEX 01 00:03:23
  TRACK 05 AUDIO
    TITLE "4:cjc044_2487"
    INDEX 01 00:04:09
  TRACK 06 AUDIO
    TITLE "0:"
    INDEX 01 00:05:32
  TRACK 07 AUDIO
    TITLE "5:cjc044_2488"
    INDEX 01 00:06:12
  TRACK 08 AUDIO
    TITLE "0:"
    INDEX 01 00:10:08
  TRACK 09 AUDIO
    TITLE "2:cjc044_2489"
    INDEX 01 00:11:66
  TRACK 10 AUDIO
    TITLE "0:"
    INDEX 01 00:13:18
  TRACK 11 AUDIO
    TITLE "3:cjc044_2490"
    INDEX 01 00:14:02
  TRACK 12 AUDIO
    TITLE "0:"
    INDEX 01 00:15:05
  TRACK 13 AUDIO
    TITLE "4:cjc044_2491"
    INDEX 01 00:15:60
  TRACK 14 AUDIO
    TITLE "0:"
    INDEX 01 00:17:18
  TRACK 15 AUDIO
    TITLE "5:cjc044_2492"
    INDEX 01 00:17:63
  TRACK 16 AUDIO
    TITLE "0:"
    INDEX 01 00:21:00
  TRACK 17 AUDIO
    TITLE "2:cjc044_2493"
    INDEX 01 00:22:60
  TRACK 18 AUDIO
    TITLE "0:"
    INDEX 01 00:24:02
  TRACK 19 AUDIO
    TITLE "3:cjc044_2494"
    INDEX 01 00:24:63
  TRACK 20 AUDIO
    TITLE "0:"
    INDEX 01 00:26:42
  TRACK 21 AUDIO
    TITLE "4:cjc044_2495"
    INDEX 01 00:27:22
  TRACK 22 AUDIO
    TITLE "0:"
    INDEX 01 00:28:41
  TRACK 23 AUDIO
    TITLE "5:cjc044_2496"
    INDEX 01 00:29:17
  TRACK 24 AUDIO
    TITLE "0:"
    INDEX 01 00:32:66
  TRACK 25 AUDIO
    TITLE "2:cjc044_2497"
    INDEX 01 00:34:51
  TRACK 26 AUDIO
    TITLE "0:"
    INDEX 01 00:35:51
  TRACK 27 AUDIO
    TITLE "3:cjc044_2498"
    INDEX 01 00:36:38
  TRACK 28 AUDIO
    TITLE "0:"
    INDEX 01 00:37:42
  TRACK 29 AUDIO
    TITLE "4:cjc044_2499"
    INDEX 01 00:38:30
  TRACK 30 AUDIO
    TITLE "0:"
    INDEX 01 00:39:27
  TRACK 31 AUDIO
    TITLE "5:cjc044_2500"
    INDEX 01 00:40:05
  TRACK 32 AUDIO
    TITLE "0:"
    INDEX 01 00:43:03
  TRACK 33 AUDIO
    TITLE "2:cjc044_2501"
    INDEX 01 00:44:61
  TRACK 34 AUDIO
    TITLE "0:"
    INDEX 01 00:46:00
  TRACK 35 AUDIO
    TITLE "3:cjc044_2502"
    INDEX 01 00:46:51
  TRACK 36 AUDIO
    TITLE "0:"
    INDEX 01 00:47:54
  TRACK 37 AUDIO
    TITLE "4:cjc044_2503"
    INDEX 01 00:48:36
  TRACK 38 AUDIO
    TITLE "0:"
    INDEX 01 00:49:47
  TRACK 39 AUDIO
    TITLE "5:cjc044_2504"
    INDEX 01 00:50:27
  TRACK 40 AUDIO
    TITLE "0:"
    INDEX 01 00:53:60
  TRACK 41 AUDIO
    TITLE "2:cjc044_2505"
    INDEX 01 00:55:44
  TRACK 42 AUDIO
    TITLE "0:"
    INDEX 01 00:56:69
  TRACK 43 AUDIO
    TITLE "3:cjc044_2506"
    INDEX 01 00:57:46
  TRACK 44 AUDIO
    TITLE "0:"
    INDEX 01 00:58:38
  TRACK 45 AUDIO
    TITLE "4:cjc044_2507"
    INDEX 01 00:59:22
  TRACK 46 AUDIO
    TITLE "0:"
    INDEX 01 01:00:45
  TRACK 47 AUDIO
    TITLE "5:cjc044_2508"
    INDEX 01 01:01:25
  TRACK 48 AUDIO
    TITLE "0:"
    INDEX 01 01:05:15
  TRACK 49 AUDIO
    TITLE "2:cjc044_2509"
    INDEX 01 01:07:00
  TRACK 50 AUDIO
    TITLE "0:"
    INDEX 01 01:08:03
  TRACK 51 AUDIO
    TITLE "3:cjc044_2510"
    INDEX 01 01:08:56
  TRACK 52 AUDIO
    TITLE "0:"
    INDEX 01 01:09:69
  TRACK 53 AUDIO
    TITLE "4:cjc044_2511"
    INDEX 01 01:10:51
  TRACK 54 AUDIO
    TITLE "0:"
    INDEX 01 01:11:54
  TRACK 55 AUDIO
    TITLE "5:cjc044_2512"
    INDEX 01 01:12:36
  TRACK 56 AUDIO
    TITLE "0:"
    INDEX 01 01:15:74
  TRACK 57 AUDIO
    TITLE "2:cjc044_2513"
    INDEX 01 01:17:63
  TRACK 58 AUDIO
    TITLE "0:"
    INDEX 01 01:18:72
  TRACK 59 AUDIO
    TITLE "3:cjc044_2514"
    INDEX 01 01:19:56
  TRACK 60 AUDIO
    TITLE "0:"
    INDEX 01 01:20:49
  TRACK 61 AUDIO
    TITLE "4:cjc044_2515"
    INDEX 01 01:21:33
  TRACK 62 AUDIO
    TITLE "0:"
    INDEX 01 01:22:42
  TRACK 63 AUDIO
    TITLE "5:cjc044_2516"
    INDEX 01 01:23:16
  TRACK 64 AUDIO
    TITLE "0:"
    INDEX 01 01:26:42
